Patient4_TMGait_0pt2_03_left_17_EMG.mot
version=1
nRows=23
nColumns=33
inDegrees=no
endheader
time	1LAddLong	2LGlutMax	3LGlutMed	4LIliopsoas	5LSemiMemb	6LBicFemLong	7LRecFem	8LVastMed	9LVastLat	10LGasMed	11LTibAnt	12lTibPost	13LPeroneusLong	14LSol	15LExtDigLong	16LFlexDigLong	17RAddLong	18RGlutMax	19RGlutMed	20RIliopsoas	21RSemiMemb	22RBicFemLong	23RRecFem	24RVastMed	25RVastLat	26RGasMed	27RTibAnt	28RTibPost	29RPeroneusLong	30RSol	31RExtDigLong	32RFlexDigLong
35.42	-0.004425	0.22247	-0.032959	-0.007782	0.017395	0.033569	0.019989	0.003662	-0.003967	0.006256	-0.018616	0.002594	0.03952	-0.027618	0.004425	-0.004425	0.014038	0.008392	-0.85831	0.31769	0.21744	-0.043793	-0.44311	0.25879	0.044403	-0.018005	-0.074921	-0.38879	-0.012817	0.27069	-0.002289	0.002747
35.421	0.003357	0.18372	-0.045624	0.00061	0.009613	0.028992	0.02533	0.013733	-0.007172	0.034637	-0.026093	-0.000305	0.009003	-0.052948	-0.004578	0.00061	0.041962	0.080109	0.20371	0.28641	0.15762	-0.16083	-0.30136	0.12985	-0.46616	-0.005493	-0.10757	0.051422	-0.51239	0.91217	-0.002441	0.010681
35.422	-0.009918	0.19455	-0.05661	0.014954	0.00946	0.020447	0.091553	0.016785	-0.021973	0.048065	-0.010529	0.006409	-0.019989	-0.011139	-0.008545	0.011444	0.048523	0.15411	0.19211	0.10101	0.14603	-0.16937	0.034943	0.07019	-0.39291	0.012207	-0.065155	0.21561	-0.55389	0.60257	-0.006409	0.015259
35.423	-0.033264	0.2327	-0.038147	-0.002136	0.011292	0.023499	0.088806	0.01297	-0.000916	0.017548	0.027313	0.005341	0.015106	0.045624	0.1033	0.011444	0.036774	0.2269	-0.16556	0.078583	0.003357	-0.057983	0.20599	-0.23086	-0.20157	0.032043	-0.031891	0.23178	-0.75974	0.20706	-0.010529	0.016785
35.424	0.097198	0.24033	-0.034637	-0.020447	0.012512	0.0383	0.074921	0.014191	-0.019531	-0.000153	0.031433	0.023804	0.05127	0.057831	0.085602	0.01358	0.03891	0.30075	-0.33173	0.065002	-0.25528	0.028992	0.2211	-0.43961	-0.022888	0.035858	-0.039978	0.072632	-0.24674	-0.46356	-0.006866	-0.002747
35.425	-0.021973	0.19455	-0.008545	-0.011444	0.009918	0.006409	0.053558	0.0177	-0.02533	0.006409	0.003967	-0.000916	0.004578	0.062256	0.035553	-0.000458	0.014954	0.27145	0.45364	-0.097809	-0.28137	0.03952	0.13123	-0.23468	0.15045	0.007019	0.01297	0.030518	0.29312	-0.69809	-0.007019	0.001984
35.426	0.050659	0.17838	0.029602	0.011749	0.022583	0.015259	0.018311	0.020294	-0.02533	0.020599	0.072479	-0.000763	-0.057678	0.08316	0.25482	0.012665	0.00824	0.19089	0.83389	-0.23285	-0.24963	-0.02655	0.013123	0.26077	0.20035	-0.006256	0.057678	-0.013733	0.057068	-0.42908	-0.006714	0.012207
35.427	-0.000916	0.15976	0.028381	0.006866	0.013275	-0.007782	-0.017853	0.016479	-0.014038	-0.00061	0.090332	0.002441	-0.010223	0.012817	0.43869	0.011597	0.014038	0.17029	0.39429	-0.40878	-0.093384	-0.035706	-0.1532	0.4248	0.2301	-0.036469	0.10849	-0.046082	-0.34302	0.026855	-0.002899	0.023499
35.428	-0.001068	0.15793	0.019836	0.013733	0.017853	0.007324	-0.051422	0.013733	-0.001831	0.002441	0.047302	-0.003815	0.046387	-0.043182	0.094757	0.006256	-0.016174	0.25192	0.14038	-0.32257	0.29465	-0.055389	-0.033569	0.45441	0.26077	-0.018005	0.16724	-0.077057	0.75134	0.68588	-0.006104	0.023956
35.429	0.004883	0.18219	-0.017548	0.012054	0.012665	-0.037079	-0.059357	0.001984	0.00885	-0.00351	-0.079193	0.00061	0.11169	-0.015259	0.085449	0.007172	0.00412	0.31952	-0.18097	0.036163	0.29678	-0.059204	0.084686	0.45959	0.21332	0.022278	0.01297	-0.064392	1.3931	0.3656	-0.001678	0.028076
35.43	0.001526	0.15106	-0.034943	-0.001068	0.01236	-0.007477	-0.099182	0.007629	0.008087	-0.005188	-0.15121	0.006714	0.096741	0.012512	-0.031128	-0.000458	0.023041	0.30563	-0.59204	0.26886	0.23025	-0.01709	0.14557	0.54977	0.21072	0.066223	-0.000305	0.039368	-1.0233	0.19226	-0.003052	0.030823
35.431	0.012817	0.14847	-0.013733	-0.028992	0.0177	-0.010986	-0.10483	0.010376	0.010376	0.006409	0.14435	0.005341	-0.032654	0.050049	-0.17303	0.001526	0.009155	0.27191	-1.2344	0.1297	0.089264	0.050354	0.11307	0.51407	0.14908	0.040741	-0.066528	0.089264	-1.0107	0.28427	-0.006866	0.028381
35.432	0.00412	0.14679	-0.019684	-0.0177	0.010681	-0.015564	-0.097656	0.007019	0.003662	0.007019	-0.030212	0.006714	-0.038757	0.051575	-0.1239	-0.004883	-0.003052	0.34134	-0.1767	-0.19867	0.026093	0.001984	0.28931	0.24277	0.035858	0.033264	-0.037689	0.06012	0.2034	0.13565	0.000305	0.030212
35.433	0.006561	0.12039	-0.043182	-0.014496	0.016174	-0.00885	-0.071411	0.014038	0.009766	0.007172	0.037079	0.006714	-0.025787	0.026703	-0.24994	0.003815	0.000763	0.2977	-0.32806	-0.11261	0.041809	-0.038757	0.44449	-0.1297	-0.2594	-0.043945	-0.029755	-0.77301	-0.32989	-0.25391	-0.00061	0.023804
35.434	0.00412	0.11749	-0.004425	0.01236	0.029602	-0.016327	-0.05249	0.009613	0.008698	0.013123	0.019989	0.004272	-0.002594	0.021057	-0.2095	0.004578	0.006866	0.29587	-1.0802	0.075226	0.14206	-0.04425	0.36301	-0.39291	-0.29602	-0.046082	-0.13596	-0.48111	-0.055084	-1.1617	-0.000916	0.011292
35.435	0.005341	0.085907	0.069885	0.006714	0.016327	-0.005035	-0.053101	0.007477	-0.001984	0.033417	-0.00824	0.005798	0.005035	-0.044861	-0.018921	-0.01236	-0.002136	0.31021	-0.37521	0.13641	0.1033	0.010681	0.29343	-0.097656	0.055847	-0.0354	-0.10254	-0.33035	-0.27451	-2.0457	-0.005341	-0.018463
35.436	0.001984	0.059204	0.059357	0.012512	0.015564	0.014343	-0.038757	0.007782	0.001221	0.011749	-0.006409	0.005188	0.032959	-0.016785	-0.081329	-0.011902	0.009003	0.21057	0.52475	0.3038	-0.059052	0.014648	0.16144	0.066986	0.25635	-0.098572	-0.09552	0.327	0.049744	-1.5739	-0.006561	-0.02121
35.437	0	0.062714	0.046082	0.034027	-0.001221	0.027466	-0.06073	0.011597	0.000763	0.018158	0.097504	0.00412	0.020905	0.056152	0.37598	-0.00885	-0.020752	0.067444	0.24307	0.15884	-0.32455	0.047455	-0.11398	-0.027466	0.49454	-0.041962	-0.056305	0.55862	0.57358	-0.3508	-0.00351	-0.010071
35.438	-0.003204	0.042725	0.014191	0.020142	0.019379	0.033875	-0.053253	0.013123	0.001221	0.024719	0.11475	0.004272	0.011444	-0.034637	0.3804	0.009918	-0.011444	-0.008087	-0.35675	-0.015564	-0.18631	0.020447	-0.63141	-0.22934	0.53986	0.02533	-0.033569	0.40222	0.29984	0.18936	-0.004425	-0.015106
35.439	0.001984	0.057983	-0.021362	0.014038	0.010376	0.01358	-0.036621	0.011597	0.010986	0.01236	0.034485	0.002289	0.045929	-0.06073	0.001221	0.005341	0.013123	0.039368	-0.088501	-0.15137	-0.00824	0.014038	-1.0187	0.039063	0.52872	0.038147	-0.009308	0.18127	-0.46463	0.73029	0.010834	-0.016937
35.44	0.007477	0.089264	-0.02121	0.024719	0.015106	0.005951	-0.019684	0.011292	0.016479	0.007324	0.19058	0.001984	-0.004578	0.000763	-0.10727	-0.003357	-0.010071	0.09491	0.4007	-0.11688	0.030365	0.088348	-0.67093	0.30045	0.60272	0.034332	-0.006409	-0.04425	0.26382	1.6858	-0.00061	0.001373
35.441	-0.000916	0.061798	0.002899	0.015259	0.019836	-0.009155	-0.027924	0.014954	0.010681	0.029297	0.15472	0.004272	-0.063782	0.015564	-0.11292	-0.00824	0.017395	0.047302	0.33447	-0.12802	0.034637	0.014191	-0.10162	0.1947	0.28503	-0.021515	0.00412	0.096741	0.96283	2.0233	0.000153	-0.005341
35.442	-0.004883	0.061493	0.020599	-0.008698	0.013733	-0.02655	-0.005493	0.015411	0.017242	0.020447	-0.099335	0.008698	-0.00824	-0.011749	-0.22537	-0.001068	0.000458	0.000153	0.50903	-0.067902	0.053558	-0.027161	0.14023	0.22705	-0.21851	-0.094299	0.022278	-0.26199	0.43076	0.97382	-0.001373	-0.008698
